<?xml version="1.0" encoding="UTF-8" standalone="no" ?>
<!DOCTYPE svg PUBLIC "-//W3C//DTD SVG 1.1//EN" "http://www.w3.org/Graphics/SVG/1.1/DTD/svg11.dtd">
<svg xmlns="http://www.w3.org/2000/svg" xmlns:xlink="http://www.w3.org/1999/xlink" version="1.1" width="400" height="400" viewBox="0 0 400 400" xml:space="preserve">
<desc>Created with Fabric.js 3.6.2</desc>
<defs>
</defs>
<g transform="matrix(7.15 0 0 7.15 200 200)" id="Layer_2"  >
<path style="stroke: none; stroke-width: 1; stroke-dasharray: none; stroke-linecap: butt; stroke-dashoffset: 0; stroke-linejoin: miter; stroke-miterlimit: 4; fill: rgb(0,0,0); fill-rule: nonzero; opacity: 1;"  transform=" translate(-16.05, -16)" d="M 22 9 a 1 1 0 0 0 0 1.42 l 4.6 4.6 H 3.06 a 1 1 0 1 0 0 2 H 26.58 L 22 21.59 A 1 1 0 0 0 22 23 a 1 1 0 0 0 1.41 0 l 6.36 -6.36 a 0.88 0.88 0 0 0 0 -1.27 L 23.42 9 A 1 1 0 0 0 22 9 Z" stroke-linecap="round" />
</g>
</svg>